<?xml version="1.0" encoding="utf-8"?>
<!-- Generator: Adobe Illustrator 18.0.0, SVG Export Plug-In . SVG Version: 6.00 Build 0)  -->
<!DOCTYPE svg PUBLIC "-//W3C//DTD SVG 1.1//EN" "http://www.w3.org/Graphics/SVG/1.1/DTD/svg11.dtd">
<svg version="1.1" id="Layer_1" xmlns="http://www.w3.org/2000/svg" xmlns:xlink="http://www.w3.org/1999/xlink" x="0px" y="0px"
	 viewBox="0 0 1100 1100" enable-background="new 0 0 1100 1100" xml:space="preserve">
<g>
	<path fill="#868686" d="M451.2,920.3c0.3-2-0.4-3.9-1.8-5.3c-4.2-4.2-15.3-5.1-61.1-7.1c-52.5-2.3-140.5-6-159.6-25.2
		c-19.4-19.4-24.9-109.8-28.1-163.8c-2.8-45.6-3.8-56.7-7.9-60.7c-1.4-1.4-3.3-2.1-5.2-1.8c-1,0.1-2.5,0.6-3.9,2
		c-8.4,8.4-18.7,90.1-22.4,131.9c-9.1,104.5,0.7,138.1,10.5,147.9c18.8,18.8,90.6,15.9,147.6,10.1c48.1-4.8,122.1-16.2,130-24.2
		C450.6,922.8,451.1,921.3,451.2,920.3z"/>
	<g>
		<path fill="#868686" d="M1052.7,180.4c5.4,7.1,10.6,14.3,15.7,21.6c4.6-16.7,8.6-33.8,12.1-51.3c8.9-44.5,16.2-89.1,18.2-134.5
			c0.6-12-3.1-16.3-13.7-16.3c-1,0-2,0-3,0.1C1018.9,4,957.2,14.9,896.9,33C957.4,74.3,1009.7,123.8,1052.7,180.4z"/>
		<path fill="#868686" d="M681.6,887.2c21.7-56.1,43.3-141.5,45.3-202c0.1-2,0-4.3,0-4.3s12.8-6.7,19-11.9
			c25.4-21.6,52.5-41.1,76.5-64.2c36.5-35.2,63.2-63.3,93.5-104.1c65-87.5,115.4-176.1,146.3-277.1c-7.4-11.1-15.1-22-23.2-32.7
			c-44.6-58.6-99.5-109.4-163.2-151.3c-4.2,1.4-8.4,2.8-12.6,4.2c-178.8,62.2-322,171.1-436.7,321c-2.1,2.8-6.5,7.4-6.5,7.4
			s-7.7,0.7-11.5,1c-30.9,2.9-62.3,4.4-92.6,10.9c-100.6,21.6-188,70.2-266.6,135.5c-16.2,13.5-31.8,27.7-46.8,42.5
			c-4.8,4.8-2.4,15.5,2.7,18.8c1.5,1,3.7,1.3,6.2,1.3c6.5,0,15.3-2.5,20.3-4.1c38.3-12,59.3-16.1,99.4-18.7
			c16.1-1,33.4-1.8,51.1-1.8c36.1,0,73.7,3.2,104.9,13.6c8.1,2.7,17.2,7.3,17.2,7.3s-3.3,12.4-5.8,19.4c-8.1,22.8-20,54.7-25.9,78.1
			c-4.8,19.3-5.2,23.1,16.3,35.4c28.6,16.3,54.5,33,74.9,59.1c10.4,13.3,19.8,27.5,29.1,41.8c7.2,11.2,9.3,17.1,17,17.1
			c3.2,0,7.4-1,13.4-3.1c27.3-9.5,57.9-18,85.7-26c5.6-1.6,10.7-3.6,10.7-3.6s2.2,4.7,3.4,8.8c2.2,7.2,6.2,19.6,7.5,27
			c4.7,28.2,8.5,58.1,10.1,87.5c2.8,53.8-5.6,120.3-24.7,158.8c-2.7,5.5-1.6,20.9,10.3,20.9c2.9,0,6.4-0.9,10.7-3.2
			c17-8.9,64.9-73.9,73.7-86C641,969.3,664.8,930.6,681.6,887.2z M777.8,420.8c-30.6,0-57.8-14.7-74.8-37.5
			c-7.4-9.3-12.5-20-15.5-32.1c-2-7.6-3.1-15.6-3.1-23.8c0-51.6,41.8-93.4,93.4-93.4c51.6,0,93.4,41.8,93.4,93.4
			C871.2,379,829.4,420.8,777.8,420.8z"/>
	</g>
</g>
</svg>
